<svg id="Layer_1" data-name="Layer 1" xmlns="http://www.w3.org/2000/svg" viewBox="0 0 600 400"><defs><style>.cls-1,.cls-2,.cls-3,.cls-4,.cls-6{fill:none;}.cls-1,.cls-10,.cls-11,.cls-12,.cls-2,.cls-3,.cls-4,.cls-5,.cls-6,.cls-7,.cls-8{stroke:#000;stroke-miterlimit:10;}.cls-2{stroke-dasharray:12.27 12.27;}.cls-3{stroke-dasharray:12.09 12.09;}.cls-4{stroke-dasharray:9.75 9.75;}.cls-5{fill:#f9a;}.cls-6{stroke-dasharray:12;}.cls-7{fill:#ffe04c;}.cls-8{fill:#6093fb;}.cls-9{fill:#adfec2;}.cls-10{fill:#ffbf42;}.cls-11{fill:#08c0cc;}.cls-12{fill:#c4c3ff;}.cls-13{fill:#f29e08;}.cls-14{opacity:0.39;}.cls-15{fill:#ee6e83;}.cls-16{fill:#72e3ac;}.cls-17{fill:#238b9e;}.cls-18{fill:#7d7dcf;}.cls-19{font-size:12.93px;font-family:CenturyGothic-Bold, Century Gothic;font-weight:700;}</style></defs><title>Data Structure</title><line class="cls-1" x1="191.26" y1="93.38" x2="191.26" y2="99.38"/><line class="cls-2" x1="191.26" y1="111.65" x2="191.26" y2="203.69"/><polyline class="cls-1" points="191.26 209.83 191.26 215.83 197.26 215.84"/><line class="cls-3" x1="209.35" y1="215.87" x2="493.52" y2="216.47"/><polyline class="cls-1" points="499.56 216.48 505.56 216.5 505.56 222.5"/><line class="cls-4" x1="505.56" y1="232.25" x2="505.56" y2="246.88"/><line class="cls-1" x1="505.56" y1="251.76" x2="505.56" y2="257.76"/><rect class="cls-5" x="114.25" y="54.55" width="154.03" height="53.91" rx="5.97"/><polyline class="cls-6" points="191.26 168.58 439.01 168.58 439.01 139.3"/><polyline class="cls-6" points="187.99 168.58 87 168.58 87 293.03"/><circle class="cls-7" cx="191.26" cy="167.98" r="7.49"/><circle class="cls-7" cx="505.56" cy="215.26" r="7.49"/><circle class="cls-8" cx="191.26" cy="215.26" r="7.49"/><circle class="cls-8" cx="439.01" cy="168.58" r="7.49"/><rect class="cls-9" x="43.51" y="248.44" width="97.33" height="52.91" rx="5.47"/><path d="M135.37,248.94a5,5,0,0,1,5,5v42a5,5,0,0,1-5,5H49a5,5,0,0,1-5-5v-42a5,5,0,0,1,5-5h86.38m0-1H49a6,6,0,0,0-6,6v42a6,6,0,0,0,6,6h86.38a6,6,0,0,0,6-6v-42a6,6,0,0,0-6-6Z"/><rect class="cls-10" x="400.35" y="86.29" width="77.53" height="53.91" rx="5.97"/><rect class="cls-11" x="260.91" y="327.07" width="77.53" height="53.91" rx="5.97"/><rect class="cls-12" x="433.24" y="251.08" width="144.66" height="53.91" rx="5.97"/><circle class="cls-5" cx="87" cy="168.58" r="7.49"/><line class="cls-6" x1="300" y1="222.75" x2="299.33" y2="327.88"/><circle class="cls-5" cx="300" cy="217.26" r="7.49"/><path class="cls-13" d="M471.2,138.88H406.82a6,6,0,0,1-6-6V91.78C401.41,136.86,428.08,126.16,471.2,138.88Z"/><g class="cls-14"><path class="cls-15" d="M256.09,108.28H121.22a6,6,0,0,1-6-6l-1-41.55C114.81,105.83,133.11,102.12,256.09,108.28Z"/></g><path class="cls-16" d="M115.07,300.15H50.69a6,6,0,0,1-6-6V253.06C45.28,298.13,72,287.44,115.07,300.15Z"/><path class="cls-17" d="M332.49,380.68H268.11a6,6,0,0,1-6-6V333.59C262.7,378.66,289.38,368,332.49,380.68Z"/><path class="cls-18" d="M569.16,304.85H439.76a6,6,0,0,1-6-6V257.76C434.35,302.83,482.81,300.11,569.16,304.85Z"/><text class="cls-19" transform="translate(160.24 85.08)">Prototype</text><text class="cls-19" transform="translate(481.92 281.61)">Closure</text><text class="cls-19" transform="translate(428.24 116.82)">Var</text><text class="cls-19" transform="translate(290.75 357.59)">Let</text><text class="cls-19" transform="translate(74.34 278.46)">Const</text></svg>