<svg id="Layer_1" data-name="Layer 1" xmlns="http://www.w3.org/2000/svg" viewBox="0 0 600 400"><defs><style>.cls-1{fill:#f9a;}.cls-2{fill:#adfec2;}.cls-3{fill:#72e3ac;}.cls-4{fill:#6093fb;}.cls-5{fill:#5f86c6;}.cls-6{fill:#238b9e;}.cls-7{fill:#4cb9de;}.cls-8{fill:#7d7dcf;}.cls-9{fill:#08c0cc;}.cls-10{fill:#92defe;}.cls-11{fill:#c4c3ff;}.cls-12{font-size:12.93px;font-family:CenturyGothic-Bold, Century Gothic;font-weight:700;}</style></defs><title>Data Structure</title><rect class="cls-1" x="472.19" y="115.03" width="43" height="8.55" rx="2"/><path d="M513.19,115.53a1.51,1.51,0,0,1,1.5,1.5v4.56a1.5,1.5,0,0,1-1.5,1.5h-39a1.5,1.5,0,0,1-1.5-1.5V117a1.5,1.5,0,0,1,1.5-1.5h39m0-1h-39a2.51,2.51,0,0,0-2.5,2.5v4.56a2.51,2.51,0,0,0,2.5,2.5h39a2.51,2.51,0,0,0,2.5-2.5V117a2.51,2.51,0,0,0-2.5-2.5Z"/><rect class="cls-1" x="382.19" y="150.52" width="163" height="8.55" rx="3"/><path d="M542.19,151a2.5,2.5,0,0,1,2.5,2.5v2.56a2.51,2.51,0,0,1-2.5,2.5h-157a2.51,2.51,0,0,1-2.5-2.5v-2.56a2.5,2.5,0,0,1,2.5-2.5h157m0-1h-157a3.51,3.51,0,0,0-3.5,3.5v2.56a3.51,3.51,0,0,0,3.5,3.5h157a3.52,3.52,0,0,0,3.5-3.5v-2.56a3.52,3.52,0,0,0-3.5-3.5Z"/><rect class="cls-1" x="337.19" y="115.03" width="126" height="8.55" rx="2"/><path d="M461.19,115.53a1.51,1.51,0,0,1,1.5,1.5v4.56a1.5,1.5,0,0,1-1.5,1.5h-122a1.5,1.5,0,0,1-1.5-1.5V117a1.5,1.5,0,0,1,1.5-1.5h122m0-1h-122a2.51,2.51,0,0,0-2.5,2.5v4.56a2.51,2.51,0,0,0,2.5,2.5h122a2.51,2.51,0,0,0,2.5-2.5V117a2.51,2.51,0,0,0-2.5-2.5Z"/><rect class="cls-1" x="394.19" y="186.01" width="163" height="8.55" rx="3"/><path d="M554.19,186.51a2.5,2.5,0,0,1,2.5,2.5v2.55a2.5,2.5,0,0,1-2.5,2.5h-157a2.5,2.5,0,0,1-2.5-2.5V189a2.5,2.5,0,0,1,2.5-2.5h157m0-1h-157a3.5,3.5,0,0,0-3.5,3.5v2.55a3.5,3.5,0,0,0,3.5,3.5h157a3.51,3.51,0,0,0,3.5-3.5V189a3.51,3.51,0,0,0-3.5-3.5Z"/><rect class="cls-1" x="414.19" y="132.78" width="43" height="8.55" rx="2"/><path d="M455.19,133.28a1.5,1.5,0,0,1,1.5,1.5v4.55a1.5,1.5,0,0,1-1.5,1.5h-39a1.5,1.5,0,0,1-1.5-1.5v-4.55a1.5,1.5,0,0,1,1.5-1.5h39m0-1h-39a2.5,2.5,0,0,0-2.5,2.5v4.55a2.5,2.5,0,0,0,2.5,2.5h39a2.51,2.51,0,0,0,2.5-2.5v-4.55a2.51,2.51,0,0,0-2.5-2.5Z"/><rect class="cls-1" x="484.19" y="168.26" width="43" height="8.55" rx="2"/><path d="M525.19,168.76a1.51,1.51,0,0,1,1.5,1.5v4.56a1.5,1.5,0,0,1-1.5,1.5h-39a1.5,1.5,0,0,1-1.5-1.5v-4.56a1.5,1.5,0,0,1,1.5-1.5h39m0-1h-39a2.51,2.51,0,0,0-2.5,2.5v4.56a2.51,2.51,0,0,0,2.5,2.5h39a2.51,2.51,0,0,0,2.5-2.5v-4.56a2.51,2.51,0,0,0-2.5-2.5Z"/><rect class="cls-2" x="318.65" y="44.27" width="53.49" height="314.02" rx="9.57"/><path d="M362.57,44.77a9.08,9.08,0,0,1,9.07,9.07V348.72a9.08,9.08,0,0,1-9.07,9.07H328.22a9.08,9.08,0,0,1-9.07-9.07V53.84a9.08,9.08,0,0,1,9.07-9.07h34.35m0-1H328.22a10.07,10.07,0,0,0-10.07,10.07V348.72a10.07,10.07,0,0,0,10.07,10.07h34.35a10.07,10.07,0,0,0,10.07-10.07V53.84a10.07,10.07,0,0,0-10.07-10.07Z"/><rect class="cls-2" x="192.07" y="166.24" width="53.49" height="192.05" rx="9.57"/><path d="M236,166.74a9.08,9.08,0,0,1,9.07,9.07V348.72a9.08,9.08,0,0,1-9.07,9.07H201.64a9.08,9.08,0,0,1-9.07-9.07V175.81a9.08,9.08,0,0,1,9.07-9.07H236m0-1H201.64a10.07,10.07,0,0,0-10.07,10.07V348.72a10.07,10.07,0,0,0,10.07,10.07H236a10.07,10.07,0,0,0,10.07-10.07V175.81A10.07,10.07,0,0,0,236,165.74Z"/><rect class="cls-2" x="65.5" y="278.85" width="53.49" height="79.44" rx="9.57"/><path d="M109.42,279.35a9.08,9.08,0,0,1,9.07,9.07v60.3a9.08,9.08,0,0,1-9.07,9.07H75.07A9.08,9.08,0,0,1,66,348.72v-60.3a9.08,9.08,0,0,1,9.07-9.07h34.35m0-1H75.07A10.07,10.07,0,0,0,65,288.42v60.3a10.07,10.07,0,0,0,10.07,10.07h34.35a10.07,10.07,0,0,0,10.07-10.07v-60.3a10.07,10.07,0,0,0-10.07-10.07Z"/><rect class="cls-2" x="255.36" y="115.88" width="53.49" height="242.41" rx="9.57"/><path d="M299.28,116.38a9.08,9.08,0,0,1,9.07,9.07V348.72a9.08,9.08,0,0,1-9.07,9.07H264.93a9.08,9.08,0,0,1-9.07-9.07V125.45a9.08,9.08,0,0,1,9.07-9.07h34.35m0-1H264.93a10.07,10.07,0,0,0-10.07,10.07V348.72a10.07,10.07,0,0,0,10.07,10.07h34.35a10.07,10.07,0,0,0,10.07-10.07V125.45a10.07,10.07,0,0,0-10.07-10.07Z"/><rect class="cls-2" x="128.79" y="73.57" width="53.49" height="284.72" rx="9.57"/><path d="M172.71,74.07a9.08,9.08,0,0,1,9.07,9.07V348.72a9.08,9.08,0,0,1-9.07,9.07H138.36a9.08,9.08,0,0,1-9.07-9.07V83.14a9.08,9.08,0,0,1,9.07-9.07h34.35m0-1H138.36a10.07,10.07,0,0,0-10.07,10.07V348.72a10.07,10.07,0,0,0,10.07,10.07h34.35a10.07,10.07,0,0,0,10.07-10.07V83.14a10.07,10.07,0,0,0-10.07-10.07Z"/><rect class="cls-1" x="337.19" y="94.56" width="163" height="8.55" rx="3"/><path d="M497.19,95.06a2.5,2.5,0,0,1,2.5,2.5v2.56a2.51,2.51,0,0,1-2.5,2.5h-157a2.51,2.51,0,0,1-2.5-2.5V97.56a2.5,2.5,0,0,1,2.5-2.5h157m0-1h-157a3.51,3.51,0,0,0-3.5,3.5v2.56a3.51,3.51,0,0,0,3.5,3.5h157a3.52,3.52,0,0,0,3.5-3.5V97.56a3.52,3.52,0,0,0-3.5-3.5Z"/><rect class="cls-1" x="363.19" y="132.78" width="43" height="8.55" rx="2"/><path d="M404.19,133.28a1.5,1.5,0,0,1,1.5,1.5v4.55a1.5,1.5,0,0,1-1.5,1.5h-39a1.5,1.5,0,0,1-1.5-1.5v-4.55a1.5,1.5,0,0,1,1.5-1.5h39m0-1h-39a2.5,2.5,0,0,0-2.5,2.5v4.55a2.5,2.5,0,0,0,2.5,2.5h39a2.51,2.51,0,0,0,2.5-2.5v-4.55a2.51,2.51,0,0,0-2.5-2.5Z"/><rect class="cls-1" x="349.19" y="168.26" width="126" height="8.55" rx="2"/><path d="M473.19,168.76a1.51,1.51,0,0,1,1.5,1.5v4.56a1.5,1.5,0,0,1-1.5,1.5h-122a1.5,1.5,0,0,1-1.5-1.5v-4.56a1.5,1.5,0,0,1,1.5-1.5h122m0-1h-122a2.51,2.51,0,0,0-2.5,2.5v4.56a2.51,2.51,0,0,0,2.5,2.5h122a2.51,2.51,0,0,0,2.5-2.5v-4.56a2.51,2.51,0,0,0-2.5-2.5Z"/><path class="cls-3" d="M362.31,357.81H328.76c-5.56,0-9.69-3.67-9.69-9.23l.3-61.41C328.05,349.53,351.91,352.49,362.31,357.81Z"/><path class="cls-4" d="M338.74,271.87c-16.08,0-29.66-11.13-34.75-15.92a1.82,1.82,0,0,1-.57-1.34,1.85,1.85,0,0,1,.57-1.34c5.09-4.78,18.67-15.91,34.75-15.91s29.67,11.13,34.76,15.91a1.84,1.84,0,0,1,.56,1.34,1.81,1.81,0,0,1-.56,1.34C368.41,260.74,354.83,271.87,338.74,271.87Z"/><path d="M338.74,237.86c15.91,0,29.37,11,34.42,15.78a1.32,1.32,0,0,1,.4,1,1.34,1.34,0,0,1-.4,1c-5.05,4.74-18.51,15.78-34.42,15.78s-29.36-11-34.41-15.78a1.35,1.35,0,0,1-.41-1,1.33,1.33,0,0,1,.41-1c5.05-4.75,18.51-15.78,34.41-15.78m0-1c-16.44,0-30.37,11.6-35.1,16a2.38,2.38,0,0,0,0,3.41c4.73,4.44,18.66,16.05,35.1,16.05s30.37-11.61,35.1-16.05a2.38,2.38,0,0,0,0-3.41c-4.73-4.45-18.65-16-35.1-16Z"/><path d="M481.56,228.48c10.65,0,21.77,3.22,33.05,9.59a106.16,106.16,0,0,1,19.91,14.67,2.62,2.62,0,0,1,0,3.75,106.16,106.16,0,0,1-19.91,14.67c-11.28,6.36-22.4,9.59-33.05,9.59s-21.77-3.23-33.05-9.59a106.61,106.61,0,0,1-19.91-14.67,2.62,2.62,0,0,1,0-3.75,106.16,106.16,0,0,1,19.91-14.67c11.28-6.37,22.4-9.59,33.05-9.59m0-1c-25.13,0-46.42,17.73-53.65,24.53a3.63,3.63,0,0,0,0,5.21c7.23,6.79,28.52,24.53,53.65,24.53S528,264,535.21,257.22a3.63,3.63,0,0,0,0-5.21c-7.23-6.8-28.52-24.53-53.65-24.53Z"/><path class="cls-5" d="M393.18,325.05c-28.21,0-57.62-8.53-87.43-25.34a280.22,280.22,0,0,1-52.48-38.65,9,9,0,0,1,0-12.89,280.61,280.61,0,0,1,52.48-38.66c29.81-16.81,59.22-25.34,87.43-25.34s57.62,8.53,87.43,25.34a280.46,280.46,0,0,1,52.47,38.66,9,9,0,0,1,0,12.89,280.07,280.07,0,0,1-52.47,38.65C450.8,316.52,421.38,325.05,393.18,325.05Z"/><path d="M393.18,184.67c28.11,0,57.45,8.51,87.18,25.28a279.79,279.79,0,0,1,52.38,38.58,8.48,8.48,0,0,1,0,12.16,279.28,279.28,0,0,1-52.38,38.59c-29.73,16.77-59.07,25.27-87.18,25.27s-57.45-8.5-87.18-25.27a279.78,279.78,0,0,1-52.39-38.59,8.48,8.48,0,0,1,0-12.16A280.29,280.29,0,0,1,306,210c29.73-16.77,59.06-25.28,87.18-25.28m0-1c-65.7,0-121.35,46.37-140.25,64.13a9.47,9.47,0,0,0,0,13.62c18.9,17.76,74.55,64.13,140.25,64.13s121.34-46.37,140.25-64.13a9.49,9.49,0,0,0,0-13.62c-18.91-17.76-74.55-64.13-140.25-64.13Z"/><path class="cls-2" d="M492.21,267.19c-11.8,0-21.78-8.17-25.52-11.69a1.19,1.19,0,0,1-.37-.89,1.21,1.21,0,0,1,.37-.89c3.74-3.51,13.72-11.69,25.52-11.69s21.77,8.18,25.51,11.69a1.22,1.22,0,0,1,.38.89,1.2,1.2,0,0,1-.38.89C514,259,504,267.19,492.21,267.19Z"/><path d="M492.21,242.53c3.87,0,14.07,1.13,25.17,11.56a.7.7,0,0,1,.21.52.71.71,0,0,1-.21.53c-11.1,10.42-21.3,11.55-25.17,11.55s-14.08-1.13-25.18-11.55a.76.76,0,0,1,0-1c11.1-10.43,21.3-11.56,25.18-11.56m0-1c-12.12,0-22.37,8.55-25.86,11.83a1.75,1.75,0,0,0,0,2.51c3.49,3.27,13.74,11.82,25.86,11.82s22.37-8.55,25.85-11.82a1.75,1.75,0,0,0,0-2.51c-3.48-3.28-13.74-11.83-25.85-11.83Z"/><path class="cls-4" d="M375,307.44c-21.19,0-43.28-6.4-65.67-19a210.91,210.91,0,0,1-39.43-29,6.63,6.63,0,0,1,0-9.51,210.46,210.46,0,0,1,39.43-29c22.39-12.63,44.48-19,65.67-19s43.27,6.41,65.66,19a210.12,210.12,0,0,1,39.43,29,6.63,6.63,0,0,1,0,9.51,210.57,210.57,0,0,1-39.43,29C418.26,301,396.17,307.44,375,307.44Z"/><path d="M375,202.28c21.09,0,43.1,6.38,65.42,19a210.38,210.38,0,0,1,39.33,29,6.13,6.13,0,0,1,0,8.78,209.93,209.93,0,0,1-39.33,29c-22.32,12.59-44.33,19-65.42,19s-43.11-6.38-65.42-19a210.08,210.08,0,0,1-39.34-29,6.13,6.13,0,0,1,0-8.78,210.53,210.53,0,0,1,39.34-29c22.31-12.59,44.32-19,65.42-19m0-1c-49.4,0-91.23,34.86-105.44,48.21a7.13,7.13,0,0,0,0,10.24c14.21,13.35,56,48.21,105.44,48.21s91.22-34.86,105.44-48.21a7.13,7.13,0,0,0,0-10.24c-14.22-13.35-56.05-48.21-105.44-48.21Z"/><path class="cls-6" d="M349.18,283.82c-28.81,0-53.12-18.69-62.24-26.73a3.29,3.29,0,0,1,0-4.95c9.12-8,33.43-26.73,62.24-26.73s53.13,18.69,62.24,26.73a3.29,3.29,0,0,1,0,4.95C402.31,265.13,378,283.82,349.18,283.82Z"/><path d="M349.18,225.91c28.65,0,52.84,18.6,61.91,26.6a2.8,2.8,0,0,1,0,4.2c-9.07,8-33.26,26.61-61.91,26.61s-52.84-18.61-61.91-26.61a2.8,2.8,0,0,1,0-4.2c9.07-8,33.27-26.6,61.91-26.6m0-1c-29.31,0-54.13,19.41-62.57,26.85a3.81,3.81,0,0,0,0,5.7c8.44,7.44,33.26,26.86,62.57,26.86s54.14-19.42,62.58-26.86a3.81,3.81,0,0,0,0-5.7c-8.44-7.44-33.26-26.85-62.58-26.85Z"/><path class="cls-7" d="M366.79,267.19c-11.8,0-21.77-8.17-25.51-11.69a1.2,1.2,0,0,1-.38-.89,1.22,1.22,0,0,1,.38-.89C345,250.21,355,242,366.79,242s21.77,8.18,25.51,11.69a1.22,1.22,0,0,1,.38.89,1.2,1.2,0,0,1-.38.89C388.56,259,378.59,267.19,366.79,267.19Z"/><path d="M366.79,242.53c3.87,0,14.07,1.13,25.17,11.56a.74.74,0,0,1,0,1c-11.1,10.42-21.3,11.55-25.17,11.55s-14.07-1.13-25.17-11.55a.74.74,0,0,1,0-1c11.1-10.43,21.3-11.56,25.17-11.56m0-1c-12.11,0-22.37,8.55-25.86,11.83a1.75,1.75,0,0,0,0,2.51c3.49,3.27,13.75,11.82,25.86,11.82s22.37-8.55,25.86-11.82a1.76,1.76,0,0,0,0-2.51c-3.49-3.28-13.75-11.83-25.86-11.83Z"/><path class="cls-8" d="M267.38,280.55c-8,0-29.1-2.32-51.92-23.76a3,3,0,0,1,0-4.35c22.82-21.45,43.91-23.76,51.92-23.76s29.09,2.31,51.92,23.76a3,3,0,0,1,0,4.35C296.47,278.23,275.39,280.55,267.38,280.55Z"/><path d="M267.38,229.18c10.37,0,21.19,3.14,32.18,9.34A103.93,103.93,0,0,1,319,252.8a2.52,2.52,0,0,1,.76,1.81,2.48,2.48,0,0,1-.76,1.81,103.87,103.87,0,0,1-19.4,14.29c-11,6.19-21.81,9.34-32.18,9.34s-21.2-3.15-32.18-9.34a103.87,103.87,0,0,1-19.4-14.29,2.48,2.48,0,0,1-.76-1.81,2.52,2.52,0,0,1,.76-1.81,103.93,103.93,0,0,1,19.4-14.28c11-6.2,21.81-9.34,32.18-9.34m0-1c-24.48,0-45.22,17.28-52.26,23.89a3.53,3.53,0,0,0,0,5.08c7,6.62,27.78,23.9,52.26,23.9s45.22-17.28,52.26-23.9a3.53,3.53,0,0,0,0-5.08c-7-6.61-27.78-23.89-52.26-23.89Z"/><path class="cls-5" d="M267.79,271.75c-16,0-29.47-11.05-34.53-15.81a1.86,1.86,0,0,1,0-2.66c5.06-4.75,18.55-15.81,34.53-15.81s29.47,11.06,34.53,15.81a1.86,1.86,0,0,1,0,2.66C297.26,260.7,283.76,271.75,267.79,271.75Z"/><path d="M267.79,238c5.26,0,19.13,1.53,34.19,15.68a1.36,1.36,0,0,1,0,1.93c-15.06,14.14-28.93,15.67-34.19,15.67s-19.13-1.53-34.19-15.67a1.36,1.36,0,0,1,0-1.93C248.66,239.5,262.53,238,267.79,238m0-1c-16.34,0-30.17,11.53-34.88,15.95a2.37,2.37,0,0,0,0,3.39c4.71,4.41,18.54,15.94,34.88,15.94s30.17-11.53,34.87-15.94a2.36,2.36,0,0,0,0-3.39C298,248.5,284.13,237,267.79,237Z"/><path class="cls-9" d="M401.81,275.7c-19.6,0-36.14-13.55-42.34-19.38a2.33,2.33,0,0,1-.72-1.71,2.36,2.36,0,0,1,.72-1.71c6.2-5.82,22.74-19.38,42.34-19.38S438,247.08,444.16,252.9a2.36,2.36,0,0,1,.72,1.71,2.33,2.33,0,0,1-.72,1.71C438,262.15,421.41,275.7,401.81,275.7Z"/><path d="M401.81,234c8.44,0,17.25,2.56,26.2,7.6a85.09,85.09,0,0,1,15.81,11.65,1.85,1.85,0,0,1,.56,1.34,1.89,1.89,0,0,1-.56,1.35A85.15,85.15,0,0,1,428,267.6c-8.95,5-17.76,7.6-26.2,7.6s-17.25-2.55-26.19-7.6A84.45,84.45,0,0,1,359.81,256a1.85,1.85,0,0,1-.56-1.35,1.81,1.81,0,0,1,.56-1.34,84.39,84.39,0,0,1,15.81-11.65c8.94-5,17.75-7.6,26.19-7.6m0-1c-20,0-36.93,14.11-42.69,19.52a2.89,2.89,0,0,0,0,4.15c5.76,5.4,22.69,19.51,42.69,19.51s36.94-14.11,42.69-19.51a2.89,2.89,0,0,0,0-4.15c-5.75-5.41-22.69-19.52-42.69-19.52Z"/><path class="cls-3" d="M439.43,267.19c-11.8,0-21.77-8.17-25.51-11.69a1.2,1.2,0,0,1-.38-.89,1.22,1.22,0,0,1,.38-.89c3.74-3.51,13.71-11.69,25.51-11.69s21.77,8.18,25.51,11.69a1.22,1.22,0,0,1,.38.89,1.2,1.2,0,0,1-.38.89C461.2,259,451.23,267.19,439.43,267.19Z"/><path d="M439.43,242.53c3.87,0,14.07,1.13,25.17,11.56a.74.74,0,0,1,0,1c-11.1,10.42-21.3,11.55-25.17,11.55s-14.07-1.13-25.17-11.55a.74.74,0,0,1,0-1c11.1-10.43,21.3-11.56,25.17-11.56m0-1c-12.11,0-22.37,8.55-25.86,11.83a1.76,1.76,0,0,0,0,2.51c3.49,3.27,13.75,11.82,25.86,11.82s22.37-8.55,25.86-11.82a1.75,1.75,0,0,0,0-2.51c-3.49-3.28-13.75-11.83-25.86-11.83Z"/><path class="cls-2" d="M526.94,259.09a14.06,14.06,0,0,1-8.15-3.15,1.67,1.67,0,0,1-.72-1.33,1.64,1.64,0,0,1,.72-1.32,12.08,12.08,0,0,1,16.24,0,1.59,1.59,0,0,1,0,2.74A14,14,0,0,1,526.94,259.09Z"/><path d="M526.94,250.63a13.53,13.53,0,0,1,7.79,3,1.29,1.29,0,0,1,.58,1,1.28,1.28,0,0,1-.58,1,11.61,11.61,0,0,1-15.64,0,1.09,1.09,0,0,1,0-1.86,13.58,13.58,0,0,1,7.85-3.05m0-1a14.55,14.55,0,0,0-8.45,3.26,2.07,2.07,0,0,0,0,3.45,12.59,12.59,0,0,0,16.84,0,2.09,2.09,0,0,0,0-3.54,14.54,14.54,0,0,0-8.39-3.21Z"/><path class="cls-10" d="M401,267.19c-11.8,0-21.77-8.17-25.51-11.69a1.2,1.2,0,0,1-.38-.89,1.22,1.22,0,0,1,.38-.89C379.18,250.21,389.15,242,401,242s21.77,8.18,25.52,11.69a1.25,1.25,0,0,1,.37.89,1.23,1.23,0,0,1-.37.89C422.72,259,412.75,267.19,401,267.19Z"/><path d="M401,242.53c3.87,0,14.08,1.13,25.17,11.56a.74.74,0,0,1,0,1C415,265.56,404.82,266.69,401,266.69s-14.07-1.13-25.17-11.55a.74.74,0,0,1,0-1c11.1-10.43,21.3-11.56,25.17-11.56m0-1c-12.11,0-22.37,8.55-25.85,11.83a1.75,1.75,0,0,0,0,2.51c3.48,3.27,13.74,11.82,25.85,11.82s22.37-8.55,25.86-11.82a1.75,1.75,0,0,0,0-2.51c-3.49-3.28-13.75-11.83-25.86-11.83Z"/><path class="cls-8" d="M205.53,259.09a14,14,0,0,1-8.14-3.15,1.69,1.69,0,0,1-.73-1.33,1.65,1.65,0,0,1,.73-1.32,12.07,12.07,0,0,1,16.23,0,1.58,1.58,0,0,1,0,2.74A14,14,0,0,1,205.53,259.09Z"/><path d="M205.53,250.63a13.53,13.53,0,0,1,7.79,3,1.28,1.28,0,0,1,.59,1,1.26,1.26,0,0,1-.59,1,11.59,11.59,0,0,1-15.63,0,1.08,1.08,0,0,1,0-1.86,13.55,13.55,0,0,1,7.84-3.05m0-1a14.6,14.6,0,0,0-8.45,3.26,2.07,2.07,0,0,0,0,3.45,12.59,12.59,0,0,0,16.84,0,2.09,2.09,0,0,0,0-3.54,14.54,14.54,0,0,0-8.39-3.21Z"/><path class="cls-7" d="M490.93,259.09a14,14,0,0,1-8.14-3.15,1.69,1.69,0,0,1-.73-1.33,1.65,1.65,0,0,1,.73-1.32,12.07,12.07,0,0,1,16.23,0,1.58,1.58,0,0,1,0,2.74A14,14,0,0,1,490.93,259.09Z"/><path d="M490.93,250.63a13.53,13.53,0,0,1,7.79,3,1.28,1.28,0,0,1,.59,1,1.26,1.26,0,0,1-.59,1,11.59,11.59,0,0,1-15.63,0,1.08,1.08,0,0,1,0-1.86,13.55,13.55,0,0,1,7.84-3.05m0-1a14.6,14.6,0,0,0-8.45,3.26,2.07,2.07,0,0,0,0,3.45,12.59,12.59,0,0,0,16.84,0,2.08,2.08,0,0,0,0-3.54,14.54,14.54,0,0,0-8.39-3.21Z"/><path class="cls-11" d="M259.06,259.09a13.17,13.17,0,0,1-7.82-3.15,1.68,1.68,0,0,1-.7-1.33,1.71,1.71,0,0,1,.7-1.33,11.27,11.27,0,0,1,15.59,0,1.64,1.64,0,0,1,0,2.75A13.23,13.23,0,0,1,259.06,259.09Z"/><path d="M259.06,250.63a12.69,12.69,0,0,1,7.46,3,1.28,1.28,0,0,1,.56,1,1.31,1.31,0,0,1-.56,1,10.8,10.8,0,0,1-15,0,1.2,1.2,0,0,1-.51-.94,1.22,1.22,0,0,1,.51-.94c1.76-1.38,4.49-3,7.51-3m0-1c-3.34,0-6.31,1.82-8.13,3.26a2.12,2.12,0,0,0,0,3.45,11.77,11.77,0,0,0,16.2,0,2.12,2.12,0,0,0,0-3.54,13.66,13.66,0,0,0-8.07-3.21Z"/><path class="cls-11" d="M276.81,259.09a13.17,13.17,0,0,1-7.82-3.15,1.68,1.68,0,0,1-.7-1.33,1.71,1.71,0,0,1,.7-1.33,11.26,11.26,0,0,1,15.58,0,1.62,1.62,0,0,1,0,2.75A13.2,13.2,0,0,1,276.81,259.09Z"/><path d="M276.81,250.63a12.63,12.63,0,0,1,7.45,3,1.27,1.27,0,0,1,.57,1,1.3,1.3,0,0,1-.57,1,10.79,10.79,0,0,1-15,0,1.2,1.2,0,0,1-.51-.94,1.22,1.22,0,0,1,.51-.94,12.72,12.72,0,0,1,7.51-3m0-1c-3.35,0-6.31,1.82-8.13,3.26a2.11,2.11,0,0,0,0,3.45,11.77,11.77,0,0,0,16.2,0,2.13,2.13,0,0,0,0-3.54,13.69,13.69,0,0,0-8.07-3.21Z"/><path class="cls-3" d="M402.68,259.62c-3.67,0-6.94-1.91-9-3.5a1.8,1.8,0,0,1,0-3c2.1-1.59,5.37-3.49,9-3.49s6.89,1.87,9,3.44a1.81,1.81,0,0,1,0,3.12C409.57,257.74,406.32,259.62,402.68,259.62Z"/><path d="M402.68,250.11c3.5,0,6.65,1.82,8.67,3.34a1.32,1.32,0,0,1,0,2.32c-2,1.53-5.17,3.35-8.67,3.35s-6.7-1.85-8.74-3.4a1.41,1.41,0,0,1-.62-1.11,1.42,1.42,0,0,1,.62-1.11c2-1.55,5.21-3.39,8.74-3.39m0-1c-3.84,0-7.25,2-9.34,3.6a2.29,2.29,0,0,0,0,3.81c2.09,1.59,5.5,3.6,9.34,3.6s7.17-2,9.27-3.55a2.29,2.29,0,0,0,0-3.91c-2.1-1.59-5.47-3.55-9.27-3.55Z"/><path class="cls-7" d="M509.22,259.09a14.06,14.06,0,0,1-8.15-3.15,1.67,1.67,0,0,1-.72-1.33,1.64,1.64,0,0,1,.72-1.32,12.08,12.08,0,0,1,16.24,0,1.59,1.59,0,0,1,0,2.74A14,14,0,0,1,509.22,259.09Z"/><path d="M509.22,250.63a13.53,13.53,0,0,1,7.79,3,1.27,1.27,0,0,1,.58,1,1.25,1.25,0,0,1-.58,1,11.59,11.59,0,0,1-15.63,0,1.08,1.08,0,0,1,0-1.86,13.55,13.55,0,0,1,7.84-3.05m0-1a14.55,14.55,0,0,0-8.45,3.26,2.07,2.07,0,0,0,0,3.45,12.59,12.59,0,0,0,16.84,0,2.09,2.09,0,0,0,0-3.54,14.54,14.54,0,0,0-8.39-3.21Z"/><path class="cls-3" d="M172.49,357.81H138.94c-5.56,0-9.69-3.67-9.69-9.23l.29-61.41C138.22,349.53,162.09,352.49,172.49,357.81Z"/><path class="cls-3" d="M235.66,357.81H202.12c-5.56,0-9.7-3.67-9.7-9.23l.3-61.41C201.4,349.53,225.26,352.49,235.66,357.81Z"/><path class="cls-3" d="M299,357.81H265.4c-5.56,0-9.69-3.67-9.69-9.23l.3-61.41C264.69,349.53,288.55,352.49,299,357.81Z"/><path class="cls-3" d="M109.41,357.81H75.86c-5.56,0-9.69-3.67-9.69-9.23l.29-61.41C75.14,349.53,99,352.49,109.41,357.81Z"/><text class="cls-12" transform="translate(70.85 267.69)">Sorting</text><text class="cls-12" transform="translate(379.81 87.34)">Recursion</text></svg>