<svg id="Layer_1" data-name="Layer 1" xmlns="http://www.w3.org/2000/svg" viewBox="0 0 280.57 286.59"><defs><style>.cls-1,.cls-3{fill:#fff;}.cls-2{fill:#010201;}.cls-10,.cls-11,.cls-12,.cls-13,.cls-3,.cls-4,.cls-5,.cls-6,.cls-7,.cls-8,.cls-9{stroke:#010201;stroke-miterlimit:10;}.cls-4{fill:#82c8a3;}.cls-5{fill:#d075ac;}.cls-6{fill:#228b9e;}.cls-7{fill:#febd43;stroke-width:0.75px;}.cls-8{fill:#6b8bc6;}.cls-9{fill:#ee6e83;}.cls-10,.cls-11,.cls-12,.cls-13{fill:none;}.cls-11{stroke-dasharray:12.87 12.87;}.cls-12{stroke-dasharray:12.31 12.31;}.cls-13{stroke-dasharray:11.9 11.9;}</style></defs><title>books</title><path class="cls-1" d="M80.56,365.5a5.07,5.07,0,0,1-5.06-5.06V176.27a7.77,7.77,0,0,1,7.77-7.77h22.36a7.88,7.88,0,0,1,7.87,7.87V358.54a7,7,0,0,1-7,7Z" transform="translate(-14.43 -79.91)"/><path class="cls-2" d="M105.63,169a7.38,7.38,0,0,1,7.37,7.37V358.54a6.47,6.47,0,0,1-6.46,6.46h-26A4.56,4.56,0,0,1,76,360.44V176.27A7.28,7.28,0,0,1,83.27,169h22.36m0-1H83.27A8.27,8.27,0,0,0,75,176.27V360.44A5.56,5.56,0,0,0,80.56,366h26a7.46,7.46,0,0,0,7.46-7.46V176.37a8.37,8.37,0,0,0-8.37-8.37Z" transform="translate(-14.43 -79.91)"/><path class="cls-3" d="M115.94,34.09h46a12.59,12.59,0,0,1,12.59,12.59V275.85a10.24,10.24,0,0,1-10.24,10.24H116.62A11.05,11.05,0,0,1,105.57,275V44.46A10.37,10.37,0,0,1,115.94,34.09Z"/><path class="cls-1" d="M199.62,365.5a4.13,4.13,0,0,1-4.12-4.12V189.05a4.55,4.55,0,0,1,4.55-4.55h11.79a4.66,4.66,0,0,1,4.66,4.66v171a5.36,5.36,0,0,1-5.35,5.35Z" transform="translate(-14.43 -79.91)"/><path class="cls-2" d="M211.84,185a4.16,4.16,0,0,1,4.16,4.16v171a4.86,4.86,0,0,1-4.85,4.85H199.62a3.62,3.62,0,0,1-3.62-3.62V189.05a4.06,4.06,0,0,1,4.05-4.05h11.79m0-1H200.05a5,5,0,0,0-5.05,5.05V361.38a4.62,4.62,0,0,0,4.62,4.62h11.53a5.85,5.85,0,0,0,5.85-5.85v-171a5.16,5.16,0,0,0-5.16-5.16Z" transform="translate(-14.43 -79.91)"/><path class="cls-1" d="M255.17,364.18A2.19,2.19,0,0,1,253,362.5L221.27,233.1a4.57,4.57,0,0,1,3.34-5.51l4.74-1.16a4.53,4.53,0,0,1,5.52,3.34l31.55,128.54a3.09,3.09,0,0,1-2.27,3.74l-8.45,2.07A2.33,2.33,0,0,1,255.17,364.18Z" transform="translate(-14.43 -79.91)"/><path class="cls-2" d="M230.45,226.8h0a4.05,4.05,0,0,1,3.94,3.09l31.54,128.54a2.59,2.59,0,0,1-1.9,3.13l-8.45,2.07a1.4,1.4,0,0,1-.41.05,1.71,1.71,0,0,1-1.66-1.3L221.76,233a4.06,4.06,0,0,1,3-4.9l4.74-1.17a4.6,4.6,0,0,1,1-.11m0-1a5,5,0,0,0-1.21.14l-4.75,1.17a5,5,0,0,0-3.7,6.11l31.75,129.4a2.71,2.71,0,0,0,2.63,2.06,2.88,2.88,0,0,0,.65-.07l8.45-2.08a3.58,3.58,0,0,0,2.63-4.34L235.36,229.65a5.06,5.06,0,0,0-4.91-3.85Z" transform="translate(-14.43 -79.91)"/><path class="cls-1" d="M30,365.5A3.5,3.5,0,0,1,26.5,362V192.7a8.21,8.21,0,0,1,8.2-8.2h4.81a8,8,0,0,1,8,8v169.4a3.61,3.61,0,0,1-3.61,3.61Z" transform="translate(-14.43 -79.91)"/><path class="cls-2" d="M39.51,185A7.5,7.5,0,0,1,47,192.49v169.4A3.12,3.12,0,0,1,43.89,365H30a3,3,0,0,1-3-3V192.7a7.72,7.72,0,0,1,7.7-7.7h4.81m0-1H34.7a8.71,8.71,0,0,0-8.7,8.7V362a4,4,0,0,0,4,4h13.9A4.11,4.11,0,0,0,48,361.89V192.49A8.49,8.49,0,0,0,39.51,184Z" transform="translate(-14.43 -79.91)"/><path class="cls-1" d="M57.52,365.5a3,3,0,0,1-3-3V195.85a5.36,5.36,0,0,1,5.35-5.35h4a4.64,4.64,0,0,1,4.63,4.63V360.64a4.87,4.87,0,0,1-4.86,4.86Z" transform="translate(-14.43 -79.91)"/><path class="cls-2" d="M63.87,191A4.13,4.13,0,0,1,68,195.13V360.64A4.37,4.37,0,0,1,63.64,365H57.52A2.52,2.52,0,0,1,55,362.48V195.85A4.86,4.86,0,0,1,59.85,191h4m0-1h-4A5.85,5.85,0,0,0,54,195.85V362.48A3.51,3.51,0,0,0,57.52,366h6.12A5.36,5.36,0,0,0,69,360.64V195.13A5.13,5.13,0,0,0,63.87,190Z" transform="translate(-14.43 -79.91)"/><rect class="cls-4" x="106.07" y="62.09" width="68" height="26"/><rect class="cls-4" x="106.07" y="92.59" width="68" height="9"/><rect class="cls-5" x="181.07" y="123.59" width="21" height="9"/><rect class="cls-5" x="181.07" y="264.59" width="21" height="4"/><rect class="cls-5" x="181.07" y="136.59" width="21" height="124"/><rect class="cls-6" x="61.07" y="127.59" width="38" height="74"/><rect class="cls-4" x="106.07" y="261.59" width="68" height="9"/><rect class="cls-7" x="238.78" y="274.81" width="12.97" height="51" transform="translate(-78.94 -12.8) rotate(-13.79)"/><rect class="cls-7" x="224.93" y="243.47" width="12.97" height="3.49" transform="translate(-66.2 -17.69) rotate(-13.79)"/><rect class="cls-7" x="226.4" y="249.53" width="13.51" height="3.49" transform="translate(-67.6 -17.1) rotate(-13.79)"/><rect class="cls-6" x="61.07" y="112.59" width="38" height="11"/><rect class="cls-6" x="61.07" y="205.59" width="38" height="11"/><rect class="cls-8" x="40.07" y="137.59" width="14" height="17"/><rect class="cls-8" x="40.07" y="253.59" width="14" height="17"/><rect class="cls-9" x="12.07" y="179.09" width="21" height="6"/><rect class="cls-9" x="12.07" y="187.59" width="21" height="6"/><rect class="cls-9" x="12.07" y="245.59" width="21" height="6"/><rect class="cls-9" x="12.07" y="196.59" width="21" height="46"/><path class="cls-10" d="M14.5,132.5a19,19,0,0,1,6,.36" transform="translate(-14.43 -79.91)"/><path class="cls-10" d="M33.16,140.52a28.39,28.39,0,0,1,3.34,5s.89-2,2.61-5.4" transform="translate(-14.43 -79.91)"/><path class="cls-11" d="M45.38,128.87C61.29,102.66,97.46,58.21,145,93.48" transform="translate(-14.43 -79.91)"/><path class="cls-10" d="M150,97.49c1.48,1.26,3,2.59,4.47,4a51.43,51.43,0,0,1,4.55-3.9" transform="translate(-14.43 -79.91)"/><path class="cls-12" d="M169.55,91.23c10.73-4.7,24.63-5,32.73,17.55" transform="translate(-14.43 -79.91)"/><path class="cls-10" d="M204.12,114.66c.49,1.83.95,3.77,1.38,5.84a34,34,0,0,1,4.69-3.72" transform="translate(-14.43 -79.91)"/><path class="cls-13" d="M221,112c9.65-2.19,22.14.79,32.5,22.54a286.57,286.57,0,0,1,22.05,66.22" transform="translate(-14.43 -79.91)"/><path class="cls-10" d="M276.62,206.57c.64,3.81.88,5.93.88,5.93" transform="translate(-14.43 -79.91)"/><circle class="cls-9" cx="267.57" cy="164.09" r="12.5"/></svg>