<svg width="260" height="68" viewBox="0 0 260 68" fill="none" xmlns="http://www.w3.org/2000/svg">
<path d="M3.15402 29.9975C2.24938 29.9975 1.49144 29.7171 0.880191 29.1564C0.293397 28.5712 0 27.852 0 26.9987C0 26.1454 0.293397 25.4384 0.880191 24.8777C1.49144 24.2926 2.24938 24 3.15402 24C4.05866 24 4.80438 24.2926 5.39117 24.8777C6.00242 25.4384 6.30804 26.1454 6.30804 26.9987C6.30804 27.852 6.00242 28.5712 5.39117 29.1564C4.80438 29.7171 4.05866 29.9975 3.15402 29.9975ZM5.68457 32.4111V52.6709H0.55012V32.4111H5.68457Z" fill="white"/>
<path d="M15.8919 25.6091V52.6709H10.7574V25.6091H15.8919Z" fill="white"/>
<path d="M26.0992 25.6091V52.6709H20.9647V25.6091H26.0992Z" fill="white"/>
<path d="M50.3528 32.4111V52.6709H45.1817V50.111C44.5216 50.9887 43.6536 51.6835 42.5778 52.1955C41.5265 52.6831 40.3773 52.9269 39.1304 52.9269C37.5412 52.9269 36.1353 52.5977 34.9128 51.9395C33.6903 51.2568 32.7246 50.2694 32.0155 48.9773C31.3309 47.6608 30.9886 46.1005 30.9886 44.2963V32.4111H36.1231V43.5649C36.1231 45.174 36.5265 46.4174 37.3333 47.2951C38.1402 48.1484 39.2404 48.575 40.6341 48.575C42.0521 48.575 43.1646 48.1484 43.9715 47.2951C44.7783 46.4174 45.1817 45.174 45.1817 43.5649V32.4111H50.3528Z" fill="white"/>
<path d="M63.1938 53C61.5312 53 60.0398 52.7074 58.7195 52.1223C57.3992 51.5128 56.3479 50.6961 55.5655 49.6721C54.8076 48.6482 54.3919 47.5145 54.3186 46.2711H59.4897C59.5875 47.0513 59.9665 47.6974 60.6266 48.2093C61.3112 48.7213 62.1547 48.9773 63.1572 48.9773C64.1352 48.9773 64.8931 48.7823 65.431 48.3922C65.9933 48.0021 66.2745 47.5023 66.2745 46.8928C66.2745 46.2346 65.9322 45.747 65.2476 45.43C64.5875 45.0887 63.5239 44.723 62.0569 44.3329C60.541 43.9672 59.2941 43.5893 58.3161 43.1992C57.3626 42.8092 56.5313 42.2119 55.8222 41.4073C55.1376 40.6028 54.7953 39.5179 54.7953 38.1526C54.7953 37.0311 55.1132 36.0071 55.7489 35.0807C56.409 34.1543 57.3381 33.4229 58.5362 32.8865C59.7586 32.3501 61.189 32.082 62.8271 32.082C65.2476 32.082 67.1791 32.6915 68.6217 33.9105C70.0642 35.1051 70.8588 36.7264 71.0055 38.7743H66.0911C66.0178 37.9697 65.6755 37.3359 65.0642 36.8726C64.4774 36.385 63.6828 36.1412 62.6804 36.1412C61.7513 36.1412 61.03 36.3119 60.5166 36.6532C60.0276 36.9945 59.7831 37.4699 59.7831 38.0794C59.7831 38.7621 60.1254 39.2863 60.81 39.652C61.4946 39.9933 62.5581 40.3468 64.0007 40.7125C65.4677 41.0782 66.6779 41.4561 67.6315 41.8462C68.585 42.2362 69.4041 42.8457 70.0887 43.6747C70.7977 44.4792 71.1645 45.5519 71.1889 46.8928C71.1889 48.0631 70.8588 49.1114 70.1987 50.0378C69.563 50.9643 68.6339 51.6957 67.4114 52.232C66.2134 52.744 64.8075 53 63.1938 53Z" fill="white"/>
<path d="M81.3816 36.6166V46.4174C81.3816 47.1 81.5405 47.5998 81.8584 47.9168C82.2007 48.2093 82.763 48.3556 83.5454 48.3556H85.9292V52.6709H82.7019C78.3743 52.6709 76.2105 50.5742 76.2105 46.3808V36.6166H73.7899V32.4111H76.2105V27.401H81.3816V32.4111H85.9292V36.6166H81.3816Z" fill="white"/>
<path d="M94.7567 35.5561C95.4168 34.4834 96.2725 33.6423 97.3239 33.0328C98.3997 32.4233 99.6222 32.1185 100.991 32.1185V37.4943H99.6344C98.0207 37.4943 96.7982 37.8722 95.9669 38.628C95.1601 39.3838 94.7567 40.7003 94.7567 42.5776V52.6709H89.6222V32.4111H94.7567V35.5561Z" fill="white"/>
<path d="M103.129 42.4678C103.129 40.4199 103.533 38.6036 104.34 37.0189C105.171 35.4342 106.283 34.2152 107.677 33.3619C109.095 32.5086 110.672 32.082 112.408 32.082C113.924 32.082 115.244 32.3867 116.369 32.9962C117.518 33.6057 118.435 34.3737 119.119 35.3001V32.4111H124.291V52.6709H119.119V49.7087C118.459 50.6595 117.542 51.4519 116.369 52.0857C115.22 52.6952 113.887 53 112.371 53C110.66 53 109.095 52.5612 107.677 51.6835C106.283 50.8058 105.171 49.5746 104.34 47.9899C103.533 46.3808 103.129 44.5401 103.129 42.4678ZM119.119 42.541C119.119 41.2976 118.875 40.2371 118.386 39.3594C117.897 38.4573 117.237 37.7747 116.406 37.3115C115.574 36.8239 114.682 36.5801 113.728 36.5801C112.775 36.5801 111.895 36.8117 111.088 37.2749C110.281 37.7381 109.621 38.4208 109.107 39.3228C108.618 40.2005 108.374 41.2488 108.374 42.4678C108.374 43.6868 108.618 44.7596 109.107 45.686C109.621 46.5881 110.281 47.2829 111.088 47.7705C111.919 48.2581 112.799 48.5019 113.728 48.5019C114.682 48.5019 115.574 48.2703 116.406 47.8071C117.237 47.3195 117.897 46.6368 118.386 45.7591C118.875 44.8571 119.119 43.7844 119.119 42.541Z" fill="white"/>
<path d="M135.283 36.6166V46.4174C135.283 47.1 135.442 47.5998 135.76 47.9168C136.102 48.2093 136.665 48.3556 137.447 48.3556H139.831V52.6709H136.604C132.276 52.6709 130.112 50.5742 130.112 46.3808V36.6166H127.692V32.4111H130.112V27.401H135.283V32.4111H139.831V36.6166H135.283Z" fill="white"/>
<path d="M162.411 42.1021C162.411 42.8335 162.362 43.4918 162.265 44.0769H147.411C147.534 45.5397 148.047 46.6856 148.952 47.5145C149.856 48.3434 150.969 48.7579 152.289 48.7579C154.196 48.7579 155.553 47.9412 156.36 46.3077H161.898C161.311 48.2581 160.186 49.8672 158.524 51.1349C156.861 52.3783 154.82 53 152.399 53C150.443 53 148.683 52.5733 147.118 51.7201C145.578 50.8424 144.367 49.6112 143.487 48.0265C142.631 46.4418 142.204 44.6133 142.204 42.541C142.204 40.4443 142.631 38.6036 143.487 37.0189C144.343 35.4342 145.541 34.2152 147.081 33.3619C148.622 32.5086 150.394 32.082 152.399 32.082C154.331 32.082 156.054 32.4964 157.57 33.3253C159.111 34.1543 160.296 35.3367 161.128 36.8726C161.983 38.3842 162.411 40.1274 162.411 42.1021ZM157.094 40.6393C157.069 39.3228 156.592 38.2745 155.663 37.4943C154.734 36.6898 153.597 36.2875 152.252 36.2875C150.981 36.2875 149.905 36.6776 149.025 37.4578C148.169 38.2135 147.644 39.2741 147.448 40.6393H157.094Z" fill="white"/>
<path d="M164.839 42.4678C164.839 40.4199 165.242 38.6036 166.049 37.0189C166.88 35.4342 168.005 34.2152 169.423 33.3619C170.841 32.5086 172.418 32.082 174.154 32.082C175.474 32.082 176.734 32.3745 177.932 32.9596C179.13 33.5204 180.083 34.2762 180.792 35.227V25.6091H186V52.6709H180.792V49.6721C180.157 50.6717 179.264 51.4762 178.115 52.0857C176.966 52.6952 175.633 53 174.117 53C172.406 53 170.841 52.5612 169.423 51.6835C168.005 50.8058 166.88 49.5746 166.049 47.9899C165.242 46.3808 164.839 44.5401 164.839 42.4678ZM180.829 42.541C180.829 41.2976 180.584 40.2371 180.095 39.3594C179.606 38.4573 178.946 37.7747 178.115 37.3115C177.284 36.8239 176.391 36.5801 175.438 36.5801C174.484 36.5801 173.604 36.8117 172.797 37.2749C171.99 37.7381 171.33 38.4208 170.817 39.3228C170.328 40.2005 170.083 41.2488 170.083 42.4678C170.083 43.6868 170.328 44.7596 170.817 45.686C171.33 46.5881 171.99 47.2829 172.797 47.7705C173.628 48.2581 174.509 48.5019 175.438 48.5019C176.391 48.5019 177.284 48.2703 178.115 47.8071C178.946 47.3195 179.606 46.6368 180.095 45.7591C180.584 44.8571 180.829 43.7844 180.829 42.541Z" fill="white"/>
<path d="M226.127 33.3636V51.1818C226.127 53.6545 225.407 55.5818 223.965 56.9636C222.523 58.3212 220.593 59 218.174 59C215.73 59 213.751 58.297 212.236 56.8909C210.745 55.4848 210 53.5212 210 51H215.131C215.156 52.0909 215.412 52.9394 215.901 53.5455C216.414 54.1515 217.147 54.4545 218.1 54.4545C219.029 54.4545 219.738 54.1636 220.226 53.5818C220.715 53 220.959 52.2 220.959 51.1818V33.3636H226.127Z" fill="white"/>
<path d="M240.947 59C239.163 59 237.55 58.697 236.108 58.0909C234.691 57.4849 233.567 56.6121 232.736 55.4727C231.906 54.3333 231.478 52.9879 231.454 51.4364H236.951C237.025 52.4788 237.391 53.303 238.051 53.9091C238.735 54.5152 239.664 54.8182 240.837 54.8182C242.034 54.8182 242.975 54.5394 243.659 53.9818C244.343 53.4 244.685 52.6485 244.685 51.7273C244.685 50.9758 244.453 50.3576 243.989 49.8727C243.525 49.3879 242.938 49.0121 242.23 48.7455C241.545 48.4545 240.592 48.1394 239.371 47.8C237.709 47.3152 236.353 46.8424 235.302 46.3818C234.276 45.897 233.384 45.1818 232.626 44.2364C231.893 43.2667 231.527 41.9818 231.527 40.3818C231.527 38.8788 231.906 37.5697 232.663 36.4545C233.421 35.3394 234.484 34.4909 235.852 33.9091C237.22 33.303 238.784 33 240.543 33C243.183 33 245.321 33.6424 246.958 34.9273C248.619 36.1879 249.536 37.9576 249.707 40.2364H244.062C244.013 39.3636 243.635 38.6485 242.926 38.0909C242.242 37.5091 241.325 37.2182 240.177 37.2182C239.175 37.2182 238.369 37.4727 237.758 37.9818C237.171 38.4909 236.878 39.2303 236.878 40.2C236.878 40.8788 237.098 41.4485 237.538 41.9091C238.002 42.3455 238.564 42.7091 239.224 43C239.908 43.2667 240.861 43.5818 242.083 43.9455C243.745 44.4303 245.101 44.9152 246.151 45.4C247.202 45.8848 248.106 46.6121 248.864 47.5818C249.621 48.5515 250 49.8242 250 51.4C250 52.7576 249.646 54.0182 248.937 55.1818C248.228 56.3455 247.19 57.2788 245.822 57.9818C244.453 58.6606 242.828 59 240.947 59Z" fill="white"/>
<path fill-rule="evenodd" clip-rule="evenodd" d="M246.839 6.47619H206.161C202.416 6.47619 199.381 9.5569 199.381 13.3571V54.6429C199.381 58.4431 202.416 61.5238 206.161 61.5238H246.839C250.584 61.5238 253.619 58.4431 253.619 54.6429V13.3571C253.619 9.5569 250.584 6.47619 246.839 6.47619ZM206.161 0C198.892 0 193 5.9802 193 13.3571V54.6429C193 62.0198 198.892 68 206.161 68H246.839C254.108 68 260 62.0198 260 54.6429V13.3571C260 5.9802 254.108 0 246.839 0H206.161Z" fill="white"/>
</svg>
