<svg id="Layer_1" data-name="Layer 1" xmlns="http://www.w3.org/2000/svg" xmlns:xlink="http://www.w3.org/1999/xlink" viewBox="0 0 182 51"><defs><style>.cls-1{fill-rule:evenodd;fill:url(#linear-gradient);}.cls-2{fill:url(#linear-gradient-2);}.cls-3{fill:url(#linear-gradient-3);}</style><linearGradient id="linear-gradient" x1="156.64" y1="52" x2="156.64" y2="1" gradientTransform="matrix(1, 0, 0, -1, 0, 52)" gradientUnits="userSpaceOnUse"><stop offset="0" stop-color="#6b9efc"/><stop offset="1" stop-color="#9ce2fe"/></linearGradient><linearGradient id="linear-gradient-2" x1="147.49" y1="45.18" x2="147.49" y2="10.11" gradientTransform="matrix(1, 0, 0, -1, 0, 52)" gradientUnits="userSpaceOnUse"><stop offset="0.21" stop-color="#6b9efc"/><stop offset="1" stop-color="#9ce2fe"/></linearGradient><linearGradient id="linear-gradient-3" x1="164.85" y1="45.18" x2="164.85" y2="10.11" xlink:href="#linear-gradient-2"/></defs><title>logo-graident-square</title><path d="M2.05,18.87a1.94,1.94,0,0,1-1.47-.59,2.26,2.26,0,0,1,0-3,2,2,0,0,1,1.47-.59,2,2,0,0,1,1.48.59,2.26,2.26,0,0,1,0,3A2,2,0,0,1,2.05,18.87ZM.67,36.06A.39.39,0,0,1,.41,36a.41.41,0,0,1-.09-.26V21.27A.32.32,0,0,1,.41,21a.34.34,0,0,1,.26-.12H3.33a.28.28,0,0,1,.23.12.28.28,0,0,1,.11.24V35.71a.34.34,0,0,1-.11.26.32.32,0,0,1-.23.09Z"/><path d="M7.87,36.06A.39.39,0,0,1,7.61,36a.41.41,0,0,1-.09-.26v-20a.32.32,0,0,1,.09-.24.34.34,0,0,1,.26-.12h2.66a.28.28,0,0,1,.23.12.29.29,0,0,1,.12.24v20a.35.35,0,0,1-.12.26.32.32,0,0,1-.23.09Z"/><path d="M14.79,36.06a.31.31,0,0,1-.35-.35v-20a.32.32,0,0,1,.09-.24.35.35,0,0,1,.26-.12h2.66a.27.27,0,0,1,.23.12.29.29,0,0,1,.12.24v20a.35.35,0,0,1-.12.26.3.3,0,0,1-.23.09Z"/><path d="M30.1,21.3a.32.32,0,0,1,.09-.24.35.35,0,0,1,.26-.12h2.63a.26.26,0,0,1,.23.12.29.29,0,0,1,.12.24V35.71a.35.35,0,0,1-.12.26.29.29,0,0,1-.23.09H30.45a.31.31,0,0,1-.35-.35v-1a.12.12,0,0,0-.06-.12s-.07,0-.11.06a4.17,4.17,0,0,1-3.56,1.57,5.43,5.43,0,0,1-3.7-1.3,4.66,4.66,0,0,1-1.48-3.7v-10a.32.32,0,0,1,.09-.24.34.34,0,0,1,.26-.12H24.2a.27.27,0,0,1,.23.12.29.29,0,0,1,.12.24v9a3.35,3.35,0,0,0,.69,2.22,2.52,2.52,0,0,0,2,.83,2.73,2.73,0,0,0,2.08-.83,3.1,3.1,0,0,0,.78-2.22Z"/><path d="M42.51,36.24a9.08,9.08,0,0,1-3.21-.53,5.21,5.21,0,0,1-2.11-1.51A3.46,3.46,0,0,1,36.44,32v-.27a.29.29,0,0,1,.09-.23.34.34,0,0,1,.26-.12h2.54a.43.43,0,0,1,.35.35v.06a1.6,1.6,0,0,0,.78,1.3,3.59,3.59,0,0,0,2,.54,3.36,3.36,0,0,0,1.88-.48A1.47,1.47,0,0,0,45.09,32a1.08,1.08,0,0,0-.61-1,8.7,8.7,0,0,0-1.91-.74l-1.1-.35a16.34,16.34,0,0,1-2.49-1,5,5,0,0,1-1.7-1.36,3.5,3.5,0,0,1-.7-2.25A3.91,3.91,0,0,1,38.17,22a6.64,6.64,0,0,1,4.2-1.24,7.49,7.49,0,0,1,3.1.59A4.61,4.61,0,0,1,47.52,23a3.86,3.86,0,0,1,.72,2.3.36.36,0,0,1-.11.27.32.32,0,0,1-.23.09H45.44a.39.39,0,0,1-.26-.09.44.44,0,0,1-.09-.27A1.5,1.5,0,0,0,44.34,24a3.35,3.35,0,0,0-2-.53,3.54,3.54,0,0,0-1.85.44,1.31,1.31,0,0,0-.69,1.19,1.21,1.21,0,0,0,.66,1.09,13.46,13.46,0,0,0,2.29.8l.63.18a18.68,18.68,0,0,1,2.58,1,4.89,4.89,0,0,1,1.76,1.36,3.36,3.36,0,0,1,.73,2.25,3.93,3.93,0,0,1-1.62,3.32A7.16,7.16,0,0,1,42.51,36.24Z"/><path d="M59.1,23.37a.37.37,0,0,1-.12.27.28.28,0,0,1-.23.08h-3c-.1,0-.14.05-.14.15V31a2.35,2.35,0,0,0,.46,1.63,2,2,0,0,0,1.53.5h.87a.27.27,0,0,1,.23.12.29.29,0,0,1,.12.24v2.22a.37.37,0,0,1-.35.38l-1.5,0a5.87,5.87,0,0,1-3.42-.8,3.53,3.53,0,0,1-1.16-3V23.87c0-.1,0-.15-.14-.15H50.65a.4.4,0,0,1-.26-.08.44.44,0,0,1-.09-.27V21.3a.32.32,0,0,1,.09-.24.35.35,0,0,1,.26-.12H52.3a.12.12,0,0,0,.14-.14V17.33a.32.32,0,0,1,.09-.23.35.35,0,0,1,.26-.12h2.52a.27.27,0,0,1,.23.12.28.28,0,0,1,.12.23V20.8a.12.12,0,0,0,.14.14h3a.26.26,0,0,1,.23.12.29.29,0,0,1,.12.24Z"/><path d="M69,20.77a3.29,3.29,0,0,1,1.62.38.37.37,0,0,1,.17.44l-.49,2.67c0,.23-.16.3-.41.2a3.37,3.37,0,0,0-1-.14,4.3,4.3,0,0,0-.58,0,2.92,2.92,0,0,0-2,.88,2.84,2.84,0,0,0-.81,2.1v8.38a.35.35,0,0,1-.12.26.3.3,0,0,1-.23.09H62.43a.39.39,0,0,1-.26-.09.41.41,0,0,1-.09-.26V21.3a.32.32,0,0,1,.09-.24.34.34,0,0,1,.26-.12h2.66a.27.27,0,0,1,.23.12.29.29,0,0,1,.12.24v1.33a.4.4,0,0,0,0,.15s.08,0,.12-.09A3.81,3.81,0,0,1,69,20.77Z"/><path d="M78.46,20.71a7.42,7.42,0,0,1,3.21.65,5,5,0,0,1,2.14,1.8,4.54,4.54,0,0,1,.75,2.58v10a.38.38,0,0,1-.11.26.32.32,0,0,1-.23.09H81.55a.43.43,0,0,1-.26-.09.47.47,0,0,1-.08-.26v-1q0-.09-.06-.09a.1.1,0,0,0-.12,0,5.17,5.17,0,0,1-4.1,1.6,5.59,5.59,0,0,1-3.59-1.13A4,4,0,0,1,72,31.83a4.36,4.36,0,0,1,1.56-3.58A6.85,6.85,0,0,1,78,27h3.09a.13.13,0,0,0,.15-.15v-.71a2.27,2.27,0,0,0-.67-1.77,2.71,2.71,0,0,0-2-.65,3.43,3.43,0,0,0-1.8.41,1.73,1.73,0,0,0-.84,1.09c-.06.24-.19.34-.4.3l-2.81-.35a1,1,0,0,1-.26-.09.21.21,0,0,1-.06-.21,4.19,4.19,0,0,1,1.88-3A7.24,7.24,0,0,1,78.46,20.71Zm-.7,12.87a3.9,3.9,0,0,0,2.43-.77,2.35,2.35,0,0,0,1-2v-1.4c0-.09,0-.14-.15-.14H78.63a4.33,4.33,0,0,0-2.43.59,1.91,1.91,0,0,0-.87,1.68A1.79,1.79,0,0,0,76,33.07,2.89,2.89,0,0,0,77.76,33.58Z"/><path d="M95.55,23.37a.37.37,0,0,1-.12.27.3.3,0,0,1-.23.08h-3a.13.13,0,0,0-.15.15V31a2.35,2.35,0,0,0,.47,1.63,2,2,0,0,0,1.53.5H95a.27.27,0,0,1,.23.12.29.29,0,0,1,.12.24v2.22a.37.37,0,0,1-.35.38l-1.51,0a5.86,5.86,0,0,1-3.41-.8,3.53,3.53,0,0,1-1.16-3V23.87c0-.1,0-.15-.14-.15H87.1a.4.4,0,0,1-.26-.08.44.44,0,0,1-.09-.27V21.3a.32.32,0,0,1,.09-.24.35.35,0,0,1,.26-.12h1.65a.12.12,0,0,0,.14-.14V17.33A.32.32,0,0,1,89,17.1a.35.35,0,0,1,.26-.12h2.52a.28.28,0,0,1,.23.12.27.27,0,0,1,.11.23V20.8c0,.09.05.14.15.14h3a.27.27,0,0,1,.23.12.29.29,0,0,1,.12.24Z"/><path d="M110.72,26.8a11.84,11.84,0,0,1,.11,1.66l0,.92a.31.31,0,0,1-.34.35H101.4a.13.13,0,0,0-.15.15,4.2,4.2,0,0,0,.27,1.33c.46,1.42,1.59,2.14,3.38,2.16A3.63,3.63,0,0,0,108,31.71a.32.32,0,0,1,.49-.09l1.79,1.51a.33.33,0,0,1,.09.48,6,6,0,0,1-2.4,2,7.6,7.6,0,0,1-3.3.71,6.9,6.9,0,0,1-3.85-1,6,6,0,0,1-2.29-2.9A11.91,11.91,0,0,1,97.9,28a9,9,0,0,1,.35-2.79,5.86,5.86,0,0,1,2.17-3.25,6.26,6.26,0,0,1,3.87-1.21Q110,20.71,110.72,26.8Zm-6.43-3.13a2.79,2.79,0,0,0-1.79.56,2.84,2.84,0,0,0-1,1.51,5,5,0,0,0-.24,1.3c0,.1,0,.15.12.15h5.87a.13.13,0,0,0,.15-.15,5.66,5.66,0,0,0-.18-1.13,2.8,2.8,0,0,0-1-1.65A2.94,2.94,0,0,0,104.29,23.67Z"/><path d="M123.07,15.71a.32.32,0,0,1,.09-.24.35.35,0,0,1,.26-.12h2.66a.27.27,0,0,1,.23.12.29.29,0,0,1,.12.24v20a.35.35,0,0,1-.12.26.3.3,0,0,1-.23.09h-2.66a.31.31,0,0,1-.35-.35v-.89a.12.12,0,0,0-.06-.12s-.07,0-.11.06a4.11,4.11,0,0,1-3.33,1.54,5.5,5.5,0,0,1-3.47-1.1,6.12,6.12,0,0,1-2.06-3,12.58,12.58,0,0,1-.52-3.7,11.94,11.94,0,0,1,.49-3.61,6.15,6.15,0,0,1,2.06-3.05,5.64,5.64,0,0,1,3.56-1.09,4.11,4.11,0,0,1,3.27,1.48.15.15,0,0,0,.11.06.12.12,0,0,0,.06-.12Zm-.69,16.21a7.28,7.28,0,0,0,.66-3.43,7,7,0,0,0-.72-3.52,2.43,2.43,0,0,0-2.2-1.3,2.63,2.63,0,0,0-2.31,1.24,6.45,6.45,0,0,0-.87,3.61,7.37,7.37,0,0,0,.69,3.4,2.65,2.65,0,0,0,2.46,1.42A2.52,2.52,0,0,0,122.38,31.92Z"/><path class="cls-1" d="M172,4.86H141.25A5.15,5.15,0,0,0,136.12,10V41a5.15,5.15,0,0,0,5.13,5.16H172A5.15,5.15,0,0,0,177.17,41V10A5.15,5.15,0,0,0,172,4.86ZM141.25,0a10,10,0,0,0-10,10V41a10,10,0,0,0,10,10H172a10,10,0,0,0,10-10V10A10,10,0,0,0,172,0Z"/><path class="cls-2" d="M147.48,36.33a8.31,8.31,0,0,1-3.8-.82,6.29,6.29,0,0,1-2.48-2.34,7,7,0,0,1-.88-3.52V27.81a.29.29,0,0,1,.09-.23.33.33,0,0,1,.25-.12H144a.28.28,0,0,1,.23.12.27.27,0,0,1,.11.23v1.84a3.22,3.22,0,0,0,.83,2.29,3.52,3.52,0,0,0,4.59,0,3.07,3.07,0,0,0,.91-2.29V16a.36.36,0,0,1,.08-.24.35.35,0,0,1,.26-.12h3.31a.25.25,0,0,1,.22.12.29.29,0,0,1,.12.24V29.65a6.81,6.81,0,0,1-.91,3.52,6.45,6.45,0,0,1-2.54,2.34A8.13,8.13,0,0,1,147.48,36.33Z"/><path class="cls-3" d="M165,36.33a10.22,10.22,0,0,1-4-.73,6.1,6.1,0,0,1-2.65-2.14,5.83,5.83,0,0,1-.92-3.25v-.64a.32.32,0,0,1,.09-.24.34.34,0,0,1,.26-.11H161a.25.25,0,0,1,.23.11.29.29,0,0,1,.12.24V30a2.46,2.46,0,0,0,1,2,4.72,4.72,0,0,0,2.85.79,3.34,3.34,0,0,0,2.25-.65,2.12,2.12,0,0,0,.75-1.64,1.66,1.66,0,0,0-.46-1.17,3.71,3.71,0,0,0-1.26-.85c-.51-.25-1.33-.59-2.47-1a24.22,24.22,0,0,1-3.25-1.38,6.67,6.67,0,0,1-2.23-1.9,5,5,0,0,1-.88-3,5.38,5.38,0,0,1,.88-3.08,5.69,5.69,0,0,1,2.45-2,8.79,8.79,0,0,1,3.62-.7,8.89,8.89,0,0,1,3.85.79,6.19,6.19,0,0,1,2.65,2.22,5.61,5.61,0,0,1,1,3.28v.44a.4.4,0,0,1-.11.27.36.36,0,0,1-.23.08h-3.28a.3.3,0,0,1-.34-.35v-.23a2.63,2.63,0,0,0-1-2.08,3.82,3.82,0,0,0-2.68-.88,3.43,3.43,0,0,0-2.11.59,1.94,1.94,0,0,0-.74,1.61,1.86,1.86,0,0,0,.43,1.23,4.17,4.17,0,0,0,1.31.9c.59.26,1.49.61,2.71,1.06a32.24,32.24,0,0,1,3.16,1.34,6,6,0,0,1,2.08,1.76,4.54,4.54,0,0,1,.94,3,5.35,5.35,0,0,1-2,4.36A8.29,8.29,0,0,1,165,36.33Z"/></svg>