<svg id="Layer_1" data-name="Layer 1" xmlns="http://www.w3.org/2000/svg" viewBox="0 0 600 400"><defs><style>.cls-1{fill:#08c0cc;}.cls-2,.cls-6{fill:#fff;}.cls-3{fill:#f9a;}.cls-4{opacity:0.39;}.cls-5{fill:#ee6e83;}.cls-11,.cls-6,.cls-8{stroke:#000;stroke-miterlimit:10;}.cls-7{fill:#6093fb;}.cls-8,.cls-9{fill:#5f86c6;}.cls-10{font-size:12.93px;font-family:CenturyGothic-Bold, Century Gothic;font-weight:700;}.cls-11{fill:none;}</style></defs><title>IllustrateJS</title><rect class="cls-1" x="179.5" y="119.97" width="43" height="8.55" rx="2"/><path d="M220.5,120.47A1.5,1.5,0,0,1,222,122v4.56a1.5,1.5,0,0,1-1.5,1.5h-39a1.5,1.5,0,0,1-1.5-1.5V122a1.5,1.5,0,0,1,1.5-1.5h39m0-1h-39A2.51,2.51,0,0,0,179,122v4.56a2.51,2.51,0,0,0,2.5,2.5h39a2.51,2.51,0,0,0,2.5-2.5V122a2.51,2.51,0,0,0-2.5-2.5Z"/><rect class="cls-1" x="73.5" y="99.5" width="163" height="8.55" rx="3"/><path d="M233.5,100a2.5,2.5,0,0,1,2.5,2.5v2.55a2.5,2.5,0,0,1-2.5,2.5H76.5a2.5,2.5,0,0,1-2.5-2.5V102.5a2.5,2.5,0,0,1,2.5-2.5h157m0-1H76.5a3.5,3.5,0,0,0-3.5,3.5v2.55a3.5,3.5,0,0,0,3.5,3.5h157a3.51,3.51,0,0,0,3.5-3.5V102.5a3.51,3.51,0,0,0-3.5-3.5Z"/><rect class="cls-1" x="89.5" y="155.46" width="163" height="8.55" rx="3"/><path d="M249.5,156a2.5,2.5,0,0,1,2.5,2.5V161a2.5,2.5,0,0,1-2.5,2.5H92.5A2.5,2.5,0,0,1,90,161v-2.55a2.5,2.5,0,0,1,2.5-2.5h157m0-1H92.5a3.5,3.5,0,0,0-3.5,3.5V161a3.5,3.5,0,0,0,3.5,3.5h157A3.51,3.51,0,0,0,253,161v-2.55a3.51,3.51,0,0,0-3.5-3.5Z"/><path class="cls-2" d="M204.71,68.5H417.3a9.2,9.2,0,0,1,9.2,9.2V326.29a9.21,9.21,0,0,1-9.21,9.21H204.71a9.21,9.21,0,0,1-9.21-9.21V77.71A9.21,9.21,0,0,1,204.71,68.5Z"/><path d="M417.3,69a8.71,8.71,0,0,1,8.7,8.7V326.3a8.71,8.71,0,0,1-8.7,8.7H204.7a8.71,8.71,0,0,1-8.7-8.7V77.7a8.71,8.71,0,0,1,8.7-8.7H417.3m0-1H204.7a9.7,9.7,0,0,0-9.7,9.7V326.3a9.7,9.7,0,0,0,9.7,9.7H417.3a9.7,9.7,0,0,0,9.7-9.7V77.7a9.7,9.7,0,0,0-9.7-9.7Z"/><rect class="cls-3" x="204.08" y="78.5" width="213" height="185" rx="5.31"/><path d="M411.77,79a4.82,4.82,0,0,1,4.81,4.81V258.19a4.82,4.82,0,0,1-4.81,4.81H209.39a4.82,4.82,0,0,1-4.81-4.81V83.81A4.82,4.82,0,0,1,209.39,79H411.77m0-1H209.39a5.81,5.81,0,0,0-5.81,5.81V258.19a5.81,5.81,0,0,0,5.81,5.81H411.77a5.81,5.81,0,0,0,5.81-5.81V83.81A5.81,5.81,0,0,0,411.77,78Z"/><g class="cls-4"><path class="cls-5" d="M206,210V84.81A5.81,5.81,0,0,1,211.81,79H414.19C316,92,258,83,206,210Z"/></g><circle class="cls-6" cx="245" cy="195.22" r="12.13"/><rect class="cls-1" x="44.5" y="119.97" width="126" height="8.55" rx="2"/><path d="M168.5,120.47A1.5,1.5,0,0,1,170,122v4.56a1.5,1.5,0,0,1-1.5,1.5H46.5a1.5,1.5,0,0,1-1.5-1.5V122a1.5,1.5,0,0,1,1.5-1.5h122m0-1H46.5A2.51,2.51,0,0,0,44,122v4.56a2.51,2.51,0,0,0,2.5,2.5h122a2.51,2.51,0,0,0,2.5-2.5V122a2.51,2.51,0,0,0-2.5-2.5Z"/><rect class="cls-1" x="56.5" y="173.2" width="126" height="8.55" rx="2"/><path d="M180.5,173.7a1.5,1.5,0,0,1,1.5,1.5v4.56a1.5,1.5,0,0,1-1.5,1.5H58.5a1.5,1.5,0,0,1-1.5-1.5V175.2a1.5,1.5,0,0,1,1.5-1.5h122m0-1H58.5a2.51,2.51,0,0,0-2.5,2.5v4.56a2.51,2.51,0,0,0,2.5,2.5h122a2.51,2.51,0,0,0,2.5-2.5V175.2a2.51,2.51,0,0,0-2.5-2.5Z"/><rect class="cls-1" x="70.5" y="137.72" width="43" height="8.55" rx="2"/><path d="M111.5,138.22a1.5,1.5,0,0,1,1.5,1.5v4.55a1.5,1.5,0,0,1-1.5,1.5h-39a1.5,1.5,0,0,1-1.5-1.5v-4.55a1.5,1.5,0,0,1,1.5-1.5h39m0-1h-39a2.5,2.5,0,0,0-2.5,2.5v4.55a2.5,2.5,0,0,0,2.5,2.5h39a2.5,2.5,0,0,0,2.5-2.5v-4.55a2.5,2.5,0,0,0-2.5-2.5Z"/><rect class="cls-1" x="101.5" y="190.95" width="163" height="8.55" rx="3"/><path d="M261.5,191.45A2.5,2.5,0,0,1,264,194v2.55a2.5,2.5,0,0,1-2.5,2.5h-157a2.5,2.5,0,0,1-2.5-2.5V194a2.5,2.5,0,0,1,2.5-2.5h157m0-1h-157A3.5,3.5,0,0,0,101,194v2.55a3.5,3.5,0,0,0,3.5,3.5h157a3.51,3.51,0,0,0,3.5-3.5V194a3.51,3.51,0,0,0-3.5-3.5Z"/><rect class="cls-1" x="121.5" y="137.72" width="43" height="8.55" rx="2"/><path d="M162.5,138.22a1.5,1.5,0,0,1,1.5,1.5v4.55a1.5,1.5,0,0,1-1.5,1.5h-39a1.5,1.5,0,0,1-1.5-1.5v-4.55a1.5,1.5,0,0,1,1.5-1.5h39m0-1h-39a2.5,2.5,0,0,0-2.5,2.5v4.55a2.5,2.5,0,0,0,2.5,2.5h39a2.5,2.5,0,0,0,2.5-2.5v-4.55a2.5,2.5,0,0,0-2.5-2.5Z"/><rect class="cls-1" x="49.5" y="190.95" width="43" height="8.55" rx="2"/><path d="M90.5,191.45A1.5,1.5,0,0,1,92,193v4.55a1.5,1.5,0,0,1-1.5,1.5h-39a1.5,1.5,0,0,1-1.5-1.5V193a1.5,1.5,0,0,1,1.5-1.5h39m0-1h-39A2.5,2.5,0,0,0,49,193v4.55a2.5,2.5,0,0,0,2.5,2.5h39a2.5,2.5,0,0,0,2.5-2.5V193a2.5,2.5,0,0,0-2.5-2.5Z"/><rect class="cls-1" x="172.5" y="137.72" width="43" height="8.55" rx="2"/><path d="M213.5,138.22a1.5,1.5,0,0,1,1.5,1.5v4.55a1.5,1.5,0,0,1-1.5,1.5h-39a1.5,1.5,0,0,1-1.5-1.5v-4.55a1.5,1.5,0,0,1,1.5-1.5h39m0-1h-39a2.5,2.5,0,0,0-2.5,2.5v4.55a2.5,2.5,0,0,0,2.5,2.5h39a2.5,2.5,0,0,0,2.5-2.5v-4.55a2.5,2.5,0,0,0-2.5-2.5Z"/><rect class="cls-1" x="191.5" y="173.2" width="43" height="8.55" rx="2"/><path d="M232.5,173.7a1.5,1.5,0,0,1,1.5,1.5v4.56a1.5,1.5,0,0,1-1.5,1.5h-39a1.5,1.5,0,0,1-1.5-1.5V175.2a1.5,1.5,0,0,1,1.5-1.5h39m0-1h-39a2.51,2.51,0,0,0-2.5,2.5v4.56a2.51,2.51,0,0,0,2.5,2.5h39a2.51,2.51,0,0,0,2.5-2.5V175.2a2.51,2.51,0,0,0-2.5-2.5Z"/><rect class="cls-7" x="235" y="252.51" width="46" height="46" rx="11.5"/><path d="M269.5,253a11,11,0,0,1,11,11v23a11,11,0,0,1-11,11h-23a11,11,0,0,1-11-11V264a11,11,0,0,1,11-11h23m0-1h-23a12,12,0,0,0-12,12v23a12,12,0,0,0,12,12h23a12,12,0,0,0,12-12V264a12,12,0,0,0-12-12Z"/><rect class="cls-7" x="313.33" y="252.51" width="46" height="46" rx="11.5"/><path d="M347.83,253a11,11,0,0,1,11,11v23a11,11,0,0,1-11,11h-23a11,11,0,0,1-11-11V264a11,11,0,0,1,11-11h23m0-1h-23a12,12,0,0,0-12,12v23a12,12,0,0,0,12,12h23a12,12,0,0,0,12-12V264a12,12,0,0,0-12-12Z"/><rect class="cls-7" x="391.67" y="252.51" width="46" height="46" rx="11.5"/><path d="M426.17,253a11,11,0,0,1,11,11v23a11,11,0,0,1-11,11h-23a11,11,0,0,1-11-11V264a11,11,0,0,1,11-11h23m0-1h-23a12,12,0,0,0-12,12v23a12,12,0,0,0,12,12h23a12,12,0,0,0,12-12V264a12,12,0,0,0-12-12Z"/><rect class="cls-7" x="470" y="252.51" width="46" height="46" rx="11.5"/><path d="M504.5,253a11,11,0,0,1,11,11v23a11,11,0,0,1-11,11h-23a11,11,0,0,1-11-11V264a11,11,0,0,1,11-11h23m0-1h-23a12,12,0,0,0-12,12v23a12,12,0,0,0,12,12h23a12,12,0,0,0,12-12V264a12,12,0,0,0-12-12Z"/><path class="cls-8" d="M307.41,276l-4.91,2.83-4.91,2.84a.56.56,0,0,1-.83-.48v-3.26h-9.18a1.58,1.58,0,0,1-1.58-1.58v-1.84a1.58,1.58,0,0,1,1.58-1.58h9.18v-3.09a.56.56,0,0,1,.83-.48l4.91,2.84,4.91,2.84A.55.55,0,0,1,307.41,276Z"/><path class="cls-8" d="M384.41,276l-4.91,2.83-4.91,2.84a.56.56,0,0,1-.83-.48v-3.26h-9.18a1.58,1.58,0,0,1-1.58-1.58v-1.84a1.58,1.58,0,0,1,1.58-1.58h9.18v-3.09a.56.56,0,0,1,.83-.48l4.91,2.84,4.91,2.84A.55.55,0,0,1,384.41,276Z"/><path class="cls-8" d="M464.41,276l-4.91,2.83-4.91,2.84a.56.56,0,0,1-.83-.48v-3.26h-9.18a1.58,1.58,0,0,1-1.58-1.58v-1.84a1.58,1.58,0,0,1,1.58-1.58h9.18v-3.09a.56.56,0,0,1,.83-.48l4.91,2.84,4.91,2.84A.55.55,0,0,1,464.41,276Z"/><path class="cls-9" d="M280.46,267v19c0,6.6-4.4,12-11,12h-23C239.86,298,275.46,297,280.46,267Z"/><path class="cls-9" d="M358.52,267v19c0,6.6-4.4,12-11,12h-23C317.92,298,353.52,297,358.52,267Z"/><path class="cls-9" d="M436.92,267v19c0,6.6-4.4,12-11,12h-23C396.32,298,431.92,297,436.92,267Z"/><path class="cls-9" d="M515.5,267v19c0,6.6-4.4,12-11,12h-23C474.9,298,510.5,297,515.5,267Z"/><text class="cls-10" transform="translate(438.17 317.88)">Linked List</text><text class="cls-10" transform="translate(116.9 92.44)">Binary Tree</text><text class="cls-10" transform="translate(49 216.97)">Stack &amp; Queue</text><circle class="cls-6" cx="310.58" cy="107.09" r="17.16"/><circle class="cls-6" cx="347.06" cy="154.8" r="12.13"/><circle class="cls-6" cx="373.84" cy="195.22" r="12.13"/><circle class="cls-6" cx="347.06" cy="236.5" r="12.13"/><circle class="cls-6" cx="319.82" cy="195.22" r="12.13"/><circle class="cls-6" cx="273.03" cy="236.5" r="12.13"/><circle class="cls-6" cx="273.03" cy="154.8" r="12.13"/><line class="cls-11" x1="320.33" y1="121.21" x2="342.64" y2="143.51"/><line class="cls-11" x1="277.81" y1="143.51" x2="300.11" y2="121.21"/><line class="cls-11" x1="327.24" y1="185.64" x2="339.66" y2="164.12"/><line class="cls-11" x1="366.02" y1="185.96" x2="353.86" y2="164.9"/><line class="cls-11" x1="265.84" y1="226.73" x2="252.9" y2="204.32"/><line class="cls-11" x1="251.91" y1="185.64" x2="264.33" y2="164.12"/><line class="cls-11" x1="355.5" y1="227.73" x2="367.93" y2="206.21"/></svg>