<svg width="983" height="871" viewBox="0 0 983 871" fill="none" xmlns="http://www.w3.org/2000/svg">
<path fill-rule="evenodd" clip-rule="evenodd" d="M458.521 16.9247C557.73 6.28713 660.261 -18.5934 750.442 24.0906C850.007 71.2156 937.236 154.477 970.768 259.378C1004.23 364.07 962.088 473.776 927.54 578.116C893.189 681.86 871.861 812.168 772.587 857.915C673.144 903.74 565.794 816.208 458.521 794.246C378.962 777.958 289.378 796.497 225.809 745.974C163.186 696.202 163.9 604.835 129.409 532.671C87.3663 444.707 -15.0519 373.446 1.86922 277.436C18.741 181.706 124.356 130.344 208.807 82.1667C285.405 38.4692 370.832 26.327 458.521 16.9247Z" fill="#6B9EFC" fill-opacity="0.08"/>
</svg>
