<svg xmlns="http://www.w3.org/2000/svg" viewBox="0 0 765.58 794.03"><defs><style>.cls-1{fill:#f2f2f2;}</style></defs><title>intro-grey-blob</title><g id="Layer_2" data-name="Layer 2"><g id="Layer_1-2" data-name="Layer 1"><path class="cls-1" d="M428.69,729c58.95,68.58,169.74,71,245.16,60.27C778.69,778.09,797.23,731.33,711,655c-23.66-28.92-52.53-71.28-60.23-98.26-20.49-69.52,70.44-76.43,53-170.11-18.94-69.35-29.61-68.87-66.88-96.73-22.37-18.47-31.08-29.07-45.2-54.24-21.55-42.15,7.61-66.85,15.28-99,9.88-39.27,6.35-82.37-27.54-101.7-30.28-25-89.56-44-180-30.3C50.23,62.44,203.05,121.52,175.49,224.52c-27.63,51.87-118.27,57.6-144.23,91.41C-8.38,354.35-11.62,413.34,29,441.23c21.09,15.17,66,21,107.2,42.29,39,16.45,45.47,37.93,29.85,69.24-20.86,25.38-46.27,47.43-50.34,77.44-6,31.32,5.88,65.72,26.17,87,50.69,50.7,126.48,13.15,207.89-.07C398.29,709,416.14,713.47,428.69,729Z"/></g></g></svg>