<svg id="Layer_1" data-name="Layer 1" xmlns="http://www.w3.org/2000/svg" viewBox="0 0 588.04 905.26"><defs><style>.cls-1{fill:#f2f2f2;}</style></defs><title>intro-gray-blob</title><path class="cls-1" d="M638,0V905.26c-26.88-12-51.24-28.74-70.89-51.59-22.05-27.46-58.44-26.13-203.47,9.39S187.57,802.83,187.5,748.59c2.71-30.07,17.51-60.35,40.66-82.2,28.93-27.31,33.62-41.51,29.58-73.75-3.23-25.8-97.44-58.84-144.13-72.13-23.44-6.3-68.89-33.29-63.16-90.85s55.2-93.09,79.22-103.66c31.55-10.68,100.59-39,124.26-67,29.59-34.95-3.91-122-3.93-134.56,0-19.65-8.83-70.45,87.13-98.6C358.84,19.49,389.7,9.53,427.67,0Z" transform="translate(-49.96)"/></svg>