<svg xmlns="http://www.w3.org/2000/svg" viewBox="0 0 138.67 138.67"><defs><style>.cls-1{fill:#8988d5;}.cls-2{fill:#fff;}</style></defs><title>discord</title><g id="Layer_2" data-name="Layer 2"><g id="Layer_1-2" data-name="Layer 1"><rect class="cls-1" width="138.67" height="138.67" rx="12"/><path class="cls-2" d="M96.8,26.23H41.86A11.25,11.25,0,0,0,30.64,37.45V92.37a11.26,11.26,0,0,0,11.22,11.24H92.21L87.77,95l9,8.58A11.26,11.26,0,0,0,108,92.37V37.45A11.25,11.25,0,0,0,96.8,26.23ZM81.06,82.7l-2.69-3.32c4.42-1,7.39-4.86,7.56-5.1a31.41,31.41,0,0,1-32.89,0c2.38,3.55,7.35,4.92,7.35,4.92L57.51,82.7c-9-.31-12.81-6.38-12.81-6.38-.28-12.78,6.06-24.73,6.06-24.73a22.93,22.93,0,0,1,12-4.46l.63.82c-8.78,1.86-11.15,5-11.27,5.19a35.24,35.24,0,0,1,33.69.06,27.7,27.7,0,0,0-10.36-5.34l.66-.73a23.83,23.83,0,0,1,11.84,4.46c5.75,10.14,6,24.87,6,24.87C89.09,82.79,81.06,82.7,81.06,82.7Z"/><polygon class="cls-2" points="108.02 112.44 96.79 103.61 87.78 95.03 99.57 95.34 108.03 89.69 108.02 100.29 108.02 112.44"/><circle class="cls-2" cx="59.97" cy="64.92" r="5.56"/><circle class="cls-2" cx="78.15" cy="64.92" r="5.56"/></g></g></svg>