<svg xmlns="http://www.w3.org/2000/svg" viewBox="0 0 138.67 138.67"><defs><style>.cls-1{fill:#f0798e;}.cls-2{fill:#fff;}</style></defs><title>docu</title><g id="Layer_2" data-name="Layer 2"><g id="Layer_1-2" data-name="Layer 1"><rect class="cls-1" width="138.67" height="138.67" rx="12"/><path class="cls-2" d="M96.18,65.48V96.75a12,12,0,0,1-12,12H50.38a12,12,0,0,1-12-12V50.32a12,12,0,0,1,12-12H77L75.35,41,64.42,58.68a3.89,3.89,0,0,0,3.19,5.94l20.78.62Z"/><path class="cls-2" d="M107,60.87l-10-.3-6-.19-16-.47a3,3,0,0,1-2.44-4.56L81,41.77l1.27-2.06,7.12-11.52a3,3,0,0,1,5.18.16l7.56,14.06,7.57,14.05A3,3,0,0,1,107,60.87Z"/></g></g></svg>