<svg xmlns="http://www.w3.org/2000/svg" viewBox="0 0 138.67 138.67"><defs><style>.cls-1{fill:#95d650;}.cls-2{fill:#fff;}</style></defs><title>guides</title><g id="Layer_2" data-name="Layer 2"><g id="Layer_1-2" data-name="Layer 1"><rect class="cls-1" width="138.67" height="138.67" rx="12"/><path class="cls-2" d="M101.91,69.78a32.68,32.68,0,0,0-.78-7.11l.1.15,9.21-8.57-9-13.72-10.62,4.7a32.44,32.44,0,0,0-11.28-6.48L77.42,26.34H61l-2.07,12.4h0a32.46,32.46,0,0,0-11.35,6.53l-9.84-4.75L28.22,53.92l8.92,8.87.16-.23a33,33,0,0,0,.34,15.83L29.13,86l8.72,13.93,10.93-4.55a32.48,32.48,0,0,0,10.31,5.57L61,112.32H77.44l1.91-11.42a32.78,32.78,0,0,0,10.23-5.52L100,100.43,109.54,87l-8.76-8.71A32.47,32.47,0,0,0,101.91,69.78ZM69.22,89.29A19.51,19.51,0,1,1,88.7,69.78,19.5,19.5,0,0,1,69.22,89.29Z"/></g></g></svg>