<svg xmlns="http://www.w3.org/2000/svg" viewBox="0 0 138.67 138.67"><defs><style>.cls-1{fill:#02c7d2;}.cls-2{fill:#fff;}.cls-3{fill:none;stroke:#fff;stroke-miterlimit:10;stroke-width:7px;}</style></defs><title>illu</title><g id="Layer_2" data-name="Layer 2"><g id="Layer_1-2" data-name="Layer 1"><rect class="cls-1" width="138.67" height="138.67" rx="12"/><path class="cls-2" d="M99.37,44.13,81.71,67.41a6.54,6.54,0,0,1-1.34,1.34h0l-2.1,1.09-3.93,2-4.9,2.37a.85.85,0,0,1-1.22-.83l.4-5.42.54-4.43.29-2.43a.05.05,0,0,1,0,0A6.75,6.75,0,0,1,70.56,59L88,35.92Z"/><path class="cls-2" d="M107.62,30.63a6.92,6.92,0,0,1-1.42,4.22l-3.49,4.6L91.37,31.24l3.68-4.85a7,7,0,0,1,12.57,4.24Z"/><path class="cls-3" d="M63,76.8s-22.61-7.51-28.78-2.06,13.51,18.8,13.51,18.8,17,10.87-13.07,18.51"/></g></g></svg>